<svg width="1602" height="1377" viewBox="0 0 1602 1377" fill="none" xmlns="http://www.w3.org/2000/svg">
<g clip-path="url(#clip0)">
<path d="M801 491.504H801C830.186 491.504 859.086 496.952 886.051 507.537C913.015 518.122 937.515 533.637 958.153 553.195C978.791 572.754 995.161 595.973 1006.33 621.528C1017.5 647.082 1023.25 674.471 1023.25 702.131V1206.78H578.752V702.131C578.752 674.471 584.501 647.082 595.67 621.528C606.839 595.973 623.209 572.754 643.847 553.195C664.484 533.637 688.985 518.122 715.949 507.537C742.914 496.952 771.814 491.504 801 491.504V491.504Z" fill="#454C5B"/>
<path d="M723.893 744.735H683.979V870.252H723.893V744.735Z" fill="white"/>
<path d="M867.221 880.569H734.779V994.049H867.221V880.569Z" fill="white"/>
<path d="M867.221 744.735H734.779V870.252H867.221V744.735Z" fill="white"/>
<path d="M878.106 734.419H918.02V731.839C918.035 716.045 914.48 700.431 907.595 686.048C900.711 671.665 890.656 658.846 878.106 648.454V734.419Z" fill="white"/>
<path d="M734.779 734.419H867.221V640.412C847.746 627.699 824.648 620.906 801 620.937C777.352 620.906 754.254 627.699 734.779 640.412V734.419Z" fill="white"/>
<path d="M723.893 880.569H683.979V966.538C683.98 973.835 687.038 980.832 692.482 985.991C697.926 991.15 705.309 994.049 713.008 994.049H723.893V880.569Z" fill="white"/>
<path d="M878.106 880.569V994.049H888.992C896.691 994.049 904.074 991.15 909.518 985.991C914.962 980.832 918.02 973.835 918.02 966.538V880.569H878.106Z" fill="white"/>
<path d="M723.893 734.419V648.454C711.344 658.846 701.289 671.665 694.405 686.048C687.52 700.431 683.965 716.045 683.98 731.839V734.419H723.893Z" fill="white"/>
<path d="M918.02 744.735H878.106V870.252H918.02V744.735Z" fill="white"/>
<path d="M991.498 911.517C1004.52 911.517 1015.08 901.51 1015.08 889.165C1015.08 876.82 1004.52 866.812 991.498 866.812C978.472 866.812 967.913 876.82 967.913 889.165C967.913 901.51 978.472 911.517 991.498 911.517Z" fill="#3F3D56"/>
<path d="M247.932 674.641H216.605V773.156H247.932V674.641Z" fill="#F2F2F2"/>
<path d="M360.427 674.641H256.477V773.156H360.427V674.641Z" fill="#F2F2F2"/>
<path d="M400.298 674.641H368.971V773.156H400.298V674.641Z" fill="#F2F2F2"/>
<path d="M368.971 666.544H400.298V664.519C400.31 652.122 397.519 639.868 392.116 628.579C386.712 617.29 378.82 607.229 368.971 599.072V666.544Z" fill="#F2F2F2"/>
<path d="M360.427 781.253H256.477V870.321H360.427V781.253Z" fill="#F2F2F2"/>
<path d="M247.933 781.253H216.605V848.729C216.605 854.456 219.005 859.948 223.278 863.997C227.551 868.046 233.346 870.321 239.389 870.321H247.933L247.933 781.253Z" fill="#F2F2F2"/>
<path d="M368.971 781.253V870.321H377.515C380.507 870.322 383.469 869.763 386.234 868.678C388.998 867.593 391.509 866.002 393.625 863.997C395.741 861.992 397.419 859.612 398.564 856.992C399.709 854.372 400.298 851.565 400.298 848.729V781.253H368.971Z" fill="#F2F2F2"/>
<path d="M247.933 666.544V599.072C238.083 607.229 230.191 617.29 224.788 628.579C219.384 639.868 216.594 652.122 216.605 664.519V666.544H247.933Z" fill="#F2F2F2"/>
<path d="M256.477 666.544H360.427V592.76C345.141 582.782 327.013 577.45 308.452 577.474C289.891 577.45 271.762 582.782 256.477 592.76V666.544Z" fill="#F2F2F2"/>
<path d="M441.213 881.086H176.353C174.654 881.084 173.026 880.443 171.824 879.305C170.623 878.166 169.947 876.623 169.945 875.013V858.818C169.947 857.208 170.623 855.665 171.824 854.526C173.026 853.388 174.654 852.747 176.353 852.745H441.213C442.912 852.747 444.541 853.388 445.742 854.526C446.943 855.665 447.619 857.208 447.621 858.818V875.013C447.619 876.623 446.943 878.166 445.742 879.305C444.541 880.443 442.912 881.084 441.213 881.086V881.086Z" fill="#E6E6E6"/>
<path d="M1233.08 674.641H1201.75V773.156H1233.08V674.641Z" fill="#F2F2F2"/>
<path d="M1345.58 674.641H1241.62V773.156H1345.58V674.641Z" fill="#F2F2F2"/>
<path d="M1385.45 674.641H1354.12V773.156H1385.45V674.641Z" fill="#F2F2F2"/>
<path d="M1354.12 666.544H1385.45V664.519C1385.46 652.122 1382.67 639.868 1377.26 628.579C1371.86 617.29 1363.97 607.229 1354.12 599.072V666.544Z" fill="#F2F2F2"/>
<path d="M1345.58 781.253H1241.62V870.321H1345.58V781.253Z" fill="#F2F2F2"/>
<path d="M1233.08 781.253H1201.75V848.729C1201.75 854.456 1204.15 859.948 1208.43 863.997C1212.7 868.046 1218.49 870.321 1224.54 870.321H1233.08L1233.08 781.253Z" fill="#F2F2F2"/>
<path d="M1354.12 781.253V870.321H1362.66C1365.65 870.322 1368.62 869.763 1371.38 868.678C1374.15 867.593 1376.66 866.002 1378.77 863.997C1380.89 861.992 1382.57 859.612 1383.71 856.992C1384.86 854.372 1385.45 851.565 1385.45 848.729V781.253H1354.12Z" fill="#F2F2F2"/>
<path d="M1233.08 666.544V599.072C1223.23 607.229 1215.34 617.29 1209.94 628.579C1204.53 639.868 1201.74 652.122 1201.75 664.519V666.544H1233.08Z" fill="#F2F2F2"/>
<path d="M1241.62 666.544H1345.58V592.76C1330.29 582.782 1312.16 577.45 1293.6 577.474V577.474C1275.04 577.45 1256.91 582.782 1241.62 592.76V666.544Z" fill="#F2F2F2"/>
<path d="M1426.36 881.086H1161.5C1159.8 881.084 1158.17 880.443 1156.97 879.305C1155.77 878.166 1155.1 876.623 1155.09 875.013V858.818C1155.1 857.208 1155.77 855.665 1156.97 854.526C1158.17 853.388 1159.8 852.747 1161.5 852.745H1426.36C1428.06 852.747 1429.69 853.388 1430.89 854.526C1432.09 855.665 1432.77 857.208 1432.77 858.818V875.013C1432.77 876.623 1432.09 878.166 1430.89 879.305C1429.69 880.443 1428.06 881.084 1426.36 881.086Z" fill="#E6E6E6"/>
<path d="M1504.94 1208.5H97.0633C81.19 1208.48 65.9721 1202.5 54.748 1191.86C43.5239 1181.22 37.2103 1166.8 37.1924 1151.76V286.894C37.2103 271.851 43.5239 257.428 54.748 246.791C65.9721 236.154 81.19 230.171 97.0633 230.154H1504.94C1520.81 230.171 1536.03 236.154 1547.25 246.791C1558.48 257.428 1564.79 271.851 1564.81 286.894V1151.76C1564.79 1166.8 1558.48 1181.22 1547.25 1191.86C1536.03 1202.5 1520.81 1208.48 1504.94 1208.5ZM97.0633 233.592C82.1521 233.608 67.8564 239.229 57.3126 249.222C46.7688 259.214 40.8378 272.763 40.8209 286.894V1151.76C40.8378 1165.89 46.7688 1179.44 57.3126 1189.43C67.8564 1199.42 82.1521 1205.04 97.0633 1205.06H1504.94C1519.85 1205.04 1534.14 1199.42 1544.69 1189.43C1555.23 1179.44 1561.16 1165.89 1561.18 1151.76V286.894C1561.16 272.763 1555.23 259.214 1544.69 249.222C1534.14 239.229 1519.85 233.608 1504.94 233.592H97.0633Z" fill="#CCCCCC"/>
<path d="M59.9586 343.238C44.8869 343.227 30.3714 337.841 19.2982 328.152C8.22491 318.462 1.4049 305.177 0.194066 290.94C-1.01677 276.702 3.47026 262.554 12.763 251.309C22.0558 240.063 35.4737 232.543 50.3491 230.245L786.134 1.13195C795.695 -0.365963 805.45 -0.377308 815.014 1.09837L1551.78 230.283C1567.47 232.736 1581.49 240.991 1590.76 253.235C1600.03 265.478 1603.79 280.709 1601.21 295.579C1598.64 310.45 1589.94 323.744 1577.04 332.541C1564.13 341.339 1548.06 344.919 1532.36 342.495C1524.43 341.421 807.524 244.409 800.985 244.154C794.473 244.409 76.8708 341.516 69.623 342.497C66.4279 342.99 63.1959 343.238 59.9586 343.238Z" fill="#454C5B"/>
<path d="M1116.57 1071.89C1118.08 1070.02 1119.15 1067.86 1119.69 1065.56C1120.23 1063.26 1120.24 1060.88 1119.7 1058.58C1119.17 1056.27 1118.1 1054.11 1116.59 1052.24C1115.08 1050.37 1113.15 1048.84 1110.94 1047.75L1114.3 1011.04L1091.27 1003.67L1087.29 1055.57C1085.6 1059.2 1085.38 1063.29 1086.67 1067.07C1087.96 1070.84 1090.67 1074.04 1094.27 1076.05C1097.88 1078.07 1102.15 1078.75 1106.26 1077.99C1110.36 1077.22 1114.03 1075.05 1116.57 1071.89V1071.89Z" fill="#FFB8B8"/>
<path d="M1231.53 1357.27L1210.79 1357.27L1200.93 1281.45L1231.54 1281.45L1231.53 1357.27Z" fill="#FFB8B8"/>
<path d="M1195.98 1351.65H1235.98V1375.52H1170.79C1170.79 1372.38 1171.44 1369.28 1172.71 1366.38C1173.97 1363.49 1175.83 1360.86 1178.17 1358.64C1180.51 1356.42 1183.28 1354.67 1186.34 1353.47C1189.39 1352.27 1192.67 1351.65 1195.98 1351.65Z" fill="#2F2E41"/>
<path d="M1184.45 1306.96L1164.31 1311.65L1135.63 1240.25L1165.36 1233.33L1184.45 1306.96Z" fill="#FFB8B8"/>
<path d="M1148.51 1309.55L1187.35 1300.5L1193.36 1323.68L1130.06 1338.42C1129.27 1335.38 1129.12 1332.22 1129.62 1329.12C1130.12 1326.02 1131.26 1323.04 1132.97 1320.36C1134.69 1317.68 1136.94 1315.35 1139.61 1313.49C1142.27 1311.63 1145.3 1310.29 1148.51 1309.55V1309.55Z" fill="#2F2E41"/>
<path d="M1207.26 1333.1C1205.36 1333.1 1203.54 1332.44 1202.13 1331.24C1200.72 1330.04 1199.84 1328.38 1199.64 1326.6L1175.78 1115.88L1155.01 1180.32L1184.42 1280.96C1184.93 1282.68 1184.75 1284.52 1183.91 1286.13C1183.07 1287.73 1181.63 1288.99 1179.88 1289.65L1156.49 1298.52C1155.53 1298.88 1154.5 1299.06 1153.46 1299.03C1152.43 1299.01 1151.4 1298.79 1150.46 1298.38C1149.52 1297.98 1148.67 1297.39 1147.97 1296.66C1147.27 1295.94 1146.74 1295.09 1146.4 1294.16L1110.34 1196.14C1106.4 1185.43 1104.65 1174.11 1105.2 1162.79L1110.23 1057L1242.75 1062.32L1240.68 1324.04C1240.66 1325.86 1239.92 1327.61 1238.6 1328.94C1237.29 1330.27 1235.5 1331.09 1233.59 1331.24L1207.85 1333.08C1207.65 1333.09 1207.45 1333.1 1207.26 1333.1Z" fill="#2F2E41"/>
<path d="M1185.31 822.897C1209.92 822.897 1229.87 803.989 1229.87 780.666C1229.87 757.343 1209.92 738.436 1185.31 738.436C1160.7 738.436 1140.75 757.343 1140.75 780.666C1140.75 803.989 1160.7 822.897 1185.31 822.897Z" fill="#FFB8B8"/>
<path d="M1218.08 1069.2C1206.34 1069.2 1191.76 1068.29 1176.68 1067.35C1156.07 1066.07 1134.76 1064.74 1118.85 1065.61C1116.7 1065.81 1114.54 1065.49 1112.56 1064.67C1110.58 1063.86 1108.85 1062.57 1107.55 1060.95C1091.15 1041.05 1116.44 963.442 1117.53 960.148L1138.11 873.373L1139 873.561L1138.11 873.373C1142.64 854.288 1157.11 840.209 1175.87 836.632C1193.43 833.288 1210.42 839.952 1221.32 854.471C1221.89 855.241 1222.47 856.031 1223.05 856.842C1258.52 906.63 1238.46 1030.32 1237.11 1038.31C1238.99 1040.43 1249.12 1052.46 1246.33 1060.82C1245.2 1064.21 1242.12 1066.53 1237.19 1067.7C1230.9 1068.88 1224.49 1069.38 1218.08 1069.2V1069.2Z" fill="#CCCCCC"/>
<path d="M1119.57 1069.24C1115.53 1069.24 1110.09 1067.83 1102.75 1064.94C1099.59 1063.69 1089.99 1059.9 1101.65 963.366C1107.37 915.945 1115.58 868.855 1115.66 868.385L1115.74 867.931L1116.18 867.742C1116.39 867.651 1137.34 858.55 1140.98 846.858C1141.11 846.452 1141.25 846.06 1141.4 845.681C1142.41 843.081 1144.43 840.948 1147.05 839.728C1149.67 838.508 1152.69 838.294 1155.47 839.132C1158.41 839.798 1160.97 841.499 1162.64 843.89C1164.3 846.281 1164.95 849.183 1164.44 852.007C1163.17 859.634 1160.73 867.044 1157.2 874.001C1147.34 893.276 1140.66 944.373 1140.6 944.887C1140.22 949.251 1131.27 1052.65 1129.55 1060.49C1128.95 1063.23 1127.84 1066.59 1124.59 1068.21C1123.03 1068.94 1121.31 1069.29 1119.57 1069.24Z" fill="#2F2E41"/>
<path d="M1168.25 1065.28C1167.44 1065.28 1166.65 1065.02 1166 1064.55C1152.89 1055.11 1174.11 940.662 1186.69 901.177C1189.21 893.271 1191.46 886.499 1193.36 881.049C1196.84 871.272 1199.26 861.187 1200.6 850.949C1201.29 845.402 1202.8 842.235 1205.2 841.263C1206.88 840.588 1208.84 841.047 1211.05 842.628C1222.67 842.086 1233.96 846.585 1244.43 851.536L1253.85 855.991L1264.42 1033.35C1264.12 1044.66 1240.58 1052.66 1230.31 1053.17C1213.82 1053.99 1184.21 1056.53 1171.16 1064.36C1170.3 1064.92 1169.29 1065.24 1168.25 1065.28V1065.28Z" fill="#2F2E41"/>
<path d="M1109.36 1032C1109.21 1032 1109.05 1032 1108.9 1031.99L1087.55 1030.74C1086.48 1030.68 1085.45 1030.41 1084.5 1029.95C1083.55 1029.49 1082.72 1028.84 1082.05 1028.06C1081.38 1027.27 1080.89 1026.36 1080.61 1025.39C1080.33 1024.42 1080.27 1023.4 1080.43 1022.4L1090.09 961.741L1108.28 876.635C1108.73 874.538 1109.63 872.554 1110.94 870.812C1112.25 869.069 1113.93 867.607 1115.88 866.519C1117.82 865.431 1119.98 864.743 1122.22 864.498C1124.47 864.253 1126.74 864.458 1128.89 865.098V865.098C1132.57 866.212 1135.71 868.536 1137.74 871.651C1139.78 874.766 1140.57 878.467 1139.97 882.085L1125.52 967.362L1116.97 1025.73C1116.71 1027.47 1115.79 1029.06 1114.4 1030.21C1113 1031.36 1111.22 1032 1109.36 1032V1032Z" fill="#2F2E41"/>
<path d="M1193.45 821.858C1200.16 821.996 1206.82 820.787 1213 818.31C1219.17 815.834 1224.73 812.146 1229.3 807.49C1233.86 802.834 1237.34 797.315 1239.5 791.295C1241.65 785.275 1242.44 778.891 1241.81 772.562C1241.18 766.233 1239.14 760.102 1235.83 754.573C1232.51 749.044 1228.01 744.242 1222.6 740.482C1217.19 736.721 1211 734.088 1204.44 732.756C1197.88 731.423 1191.1 731.421 1184.54 732.749C1174.74 727.111 1163.35 723.316 1151.93 724.281C1140.51 725.246 1129.22 731.671 1124.95 741.754C1120.68 751.837 1125.27 765.128 1135.88 769.226C1142.69 771.853 1150.38 770.579 1157.64 769.519C1164.91 768.46 1172.83 767.769 1179.15 771.321C1185.47 774.873 1188.32 784.398 1182.65 788.839C1179.65 791.286 1177.51 794.542 1176.51 798.173C1175.51 801.804 1175.7 805.637 1177.06 809.163C1179.9 816.137 1187.67 821.74 1193.45 821.858Z" fill="#2F2E41"/>
<path d="M1094.68 825.625C1083.06 825.632 1071.93 830.009 1063.72 837.794C1055.51 845.579 1050.9 856.134 1050.9 867.141C1050.9 878.147 1055.51 888.703 1063.72 896.488C1071.93 904.273 1083.06 908.65 1094.68 908.657H1094.68C1106.29 908.65 1117.42 904.273 1125.63 896.488C1133.84 888.703 1138.45 878.147 1138.45 867.141C1138.45 856.135 1133.84 845.579 1125.63 837.794C1117.42 830.009 1106.29 825.632 1094.68 825.625V825.625Z" fill="#00BD9D"/>
<path d="M1090.52 884.383C1089.37 884.385 1088.24 884.031 1087.32 883.375L1087.26 883.335L1075.22 874.601C1074.66 874.196 1074.19 873.69 1073.84 873.113C1073.49 872.536 1073.26 871.9 1073.17 871.239C1073.08 870.578 1073.12 869.907 1073.3 869.264C1073.48 868.62 1073.8 868.016 1074.23 867.488C1074.65 866.959 1075.19 866.515 1075.8 866.182C1076.4 865.848 1077.08 865.632 1077.77 865.545C1078.47 865.457 1079.18 865.501 1079.86 865.673C1080.54 865.845 1081.17 866.143 1081.73 866.548L1089.53 872.219L1107.97 849.421C1108.4 848.893 1108.93 848.449 1109.54 848.116C1110.15 847.783 1110.82 847.566 1111.52 847.479C1112.22 847.392 1112.92 847.435 1113.6 847.608C1114.28 847.78 1114.92 848.077 1115.48 848.482L1115.48 848.483L1115.36 848.634L1115.48 848.483C1116.61 849.303 1117.34 850.512 1117.53 851.845C1117.71 853.178 1117.33 854.527 1116.47 855.595L1094.78 882.398C1094.28 883.016 1093.64 883.515 1092.9 883.859C1092.16 884.202 1091.35 884.379 1090.52 884.377L1090.52 884.383Z" fill="white"/>
<path d="M1186.96 940.747H1033.21C1031.16 940.747 1029.14 941.128 1027.25 941.869C1025.36 942.61 1023.64 943.697 1022.2 945.068C1020.75 946.438 1019.6 948.065 1018.82 949.855C1018.04 951.646 1017.64 953.565 1017.64 955.503V1101.21C1017.64 1103.15 1018.04 1105.07 1018.82 1106.86C1019.6 1108.65 1020.75 1110.28 1022.2 1111.65C1023.64 1113.02 1025.36 1114.11 1027.25 1114.85C1029.14 1115.59 1031.16 1115.97 1033.21 1115.97H1186.96C1189 1115.97 1191.03 1115.59 1192.92 1114.85C1194.8 1114.11 1196.52 1113.02 1197.97 1111.65C1199.41 1110.28 1200.56 1108.65 1201.34 1106.86C1202.12 1105.07 1202.53 1103.15 1202.53 1101.21V955.503C1202.53 953.565 1202.12 951.646 1201.34 949.855C1200.56 948.065 1199.41 946.438 1197.97 945.068C1196.52 943.697 1194.8 942.61 1192.92 941.869C1191.03 941.128 1189 940.747 1186.96 940.747V940.747Z" fill="#00BD9D"/>
<path d="M1152.33 1049.7L1079.74 1063.1C1075.43 1063.89 1070.97 1063.03 1067.33 1060.71C1063.7 1058.38 1061.18 1054.79 1060.34 1050.71L1054.76 1023.55C1053.92 1019.47 1054.83 1015.24 1057.28 1011.8C1059.74 1008.35 1063.53 1005.97 1067.83 1005.17L1140.43 991.77C1144.73 990.98 1149.19 991.841 1152.83 994.164C1156.47 996.488 1158.98 1000.08 1159.82 1004.16L1165.4 1031.32C1166.24 1035.4 1165.33 1039.63 1162.88 1043.07C1160.43 1046.52 1156.63 1048.91 1152.33 1049.7V1049.7Z" fill="white"/>
<path d="M1137.81 1017.62L1082.41 1027.85C1081.39 1028.03 1080.34 1027.83 1079.49 1027.28C1078.63 1026.74 1078.04 1025.89 1077.84 1024.93C1077.65 1023.97 1077.86 1022.97 1078.44 1022.16C1079.01 1021.35 1079.91 1020.79 1080.92 1020.6L1136.32 1010.38C1136.82 1010.29 1137.34 1010.29 1137.84 1010.38C1138.34 1010.48 1138.82 1010.67 1139.24 1010.94C1139.66 1011.21 1140.03 1011.56 1140.31 1011.96C1140.59 1012.37 1140.79 1012.82 1140.89 1013.29C1140.98 1013.77 1140.98 1014.26 1140.88 1014.73C1140.78 1015.21 1140.58 1015.66 1140.29 1016.06C1140.01 1016.46 1139.64 1016.81 1139.21 1017.08C1138.79 1017.34 1138.31 1017.53 1137.81 1017.62V1017.62Z" fill="#00BD9D"/>
<path d="M1127.04 1032.76L1098.38 1038.05C1097.88 1038.14 1097.37 1038.14 1096.86 1038.04C1096.36 1037.95 1095.89 1037.76 1095.46 1037.49C1095.04 1037.22 1094.68 1036.87 1094.39 1036.47C1094.11 1036.06 1093.92 1035.61 1093.82 1035.13C1093.72 1034.66 1093.72 1034.17 1093.82 1033.7C1093.93 1033.22 1094.13 1032.77 1094.41 1032.37C1094.7 1031.97 1095.06 1031.62 1095.49 1031.35C1095.92 1031.09 1096.39 1030.9 1096.9 1030.81L1125.55 1025.52C1126.56 1025.33 1127.61 1025.54 1128.47 1026.08C1129.33 1026.63 1129.92 1027.48 1130.11 1028.44C1130.31 1029.4 1130.1 1030.39 1129.52 1031.2C1128.94 1032.01 1128.05 1032.58 1127.04 1032.76H1127.04Z" fill="#00BD9D"/>
<path d="M1202.53 955.503V974.869H1017.64V955.503C1017.64 953.565 1018.04 951.646 1018.82 949.855C1019.6 948.065 1020.75 946.438 1022.2 945.068C1023.64 943.697 1025.36 942.61 1027.25 941.869C1029.14 941.128 1031.16 940.747 1033.21 940.747H1186.96C1189 940.747 1191.03 941.128 1192.92 941.869C1194.8 942.61 1196.52 943.697 1197.97 945.068C1199.41 946.438 1200.56 948.065 1201.34 949.855C1202.12 951.646 1202.53 953.565 1202.53 955.503V955.503Z" fill="#3F3D56"/>
<path d="M1182.3 965.608C1183.6 963.599 1185.36 961.886 1187.43 960.589C1189.51 959.291 1191.86 958.441 1194.32 958.098C1196.78 957.755 1199.29 957.927 1201.67 958.603C1204.06 959.278 1206.25 960.441 1208.11 962.009L1243.12 945.984L1258.58 963.77L1208.81 985.742C1205.82 988.524 1201.87 990.172 1197.68 990.373C1193.5 990.574 1189.39 989.315 1186.12 986.833C1182.85 984.351 1180.66 980.82 1179.96 976.908C1179.25 972.996 1180.09 968.975 1182.3 965.608V965.608Z" fill="#FFB8B8"/>
<path d="M1230.93 982.818C1229.21 982.817 1227.53 982.268 1226.18 981.257C1224.83 980.246 1223.87 978.833 1223.47 977.245L1218.38 957.214C1217.99 955.707 1218.13 954.122 1218.76 952.693C1219.39 951.263 1220.49 950.063 1221.9 949.271L1252.57 931.879L1236.89 877.486C1235.79 873.62 1236.03 869.519 1237.58 865.793H1237.58C1239.06 862.261 1241.65 859.247 1245 857.16C1248.35 855.074 1252.3 854.017 1256.31 854.134C1260.32 854.251 1264.19 855.535 1267.4 857.812C1270.61 860.089 1273 863.249 1274.25 866.86L1291.56 916.938C1293.68 923.042 1293.7 929.63 1291.61 935.744C1289.51 941.859 1285.41 947.18 1279.91 950.936L1235.43 981.436C1234.12 982.334 1232.54 982.817 1230.93 982.818Z" fill="#2F2E41"/>
<path d="M1281.6 1377H1096.55C1096.07 1377 1095.6 1376.82 1095.26 1376.5C1094.92 1376.17 1094.73 1375.74 1094.73 1375.28C1094.73 1374.82 1094.92 1374.39 1095.26 1374.06C1095.6 1373.74 1096.07 1373.56 1096.55 1373.56H1281.6C1282.08 1373.56 1282.55 1373.74 1282.89 1374.06C1283.23 1374.39 1283.42 1374.82 1283.42 1375.28C1283.42 1375.74 1283.23 1376.17 1282.89 1376.5C1282.55 1376.82 1282.08 1377 1281.6 1377Z" fill="#CCCCCC"/>
</g>
<defs>
<clipPath id="clip0">
<rect width="1602" height="1377" fill="white"/>
</clipPath>
</defs>
</svg>
